# xmcd
#
# Track frame offsets:
#	150
#	13379
#	25087
#	35780
#	48611
#	60216
#	75257
#	87399
#	99008
#	116190
#	128834
#	142733
#	160771
#	171192
#	194370
#	215812
#	230631
#	244611
#	256698
#	286497
#	298201
#
# Disc length: 4230 seconds
# Revision: 0
# Processed by: cddbd v1.5.2PL0 Copyright (c) Steve Scherf et al.
# Submitted via: dBpowerAMP V12.0
#
DISCID=27108415
DTITLE=Various Artist - The Sonny Terry And Brownie McGhee Story
DYEAR=2015
DGENRE=Blues
TTITLE0=Sonny Terry - Daisy
TTITLE1=Sonny Terry - Midnight Special
TTITLE2=Sonny Terry - I Shall Not Be Removed
TTITLE3=Sonny Terry - Raise A Ruskus Tonight
TTITLE4=Sonny Terry - Mama Blues #2
TTITLE5=Sonny Terry - A Man Is Nothing But A Fool
TTITLE6=Sonny Terry - Rising Sun
TTITLE7=Sonny Terry - In His Care
TTITLE8=Brownie McGhee - Good Morning Blues
TTITLE9=Brownie McGhee - Me and Sonny
TTITLE10=Brownie McGhee - Move To Kanas City
TTITLE11=Brownie McGhee - Betty and Dupree
TTITLE12=Sonny Terry - Hootin' Blues #2
TTITLE13=Sonny Terry - Bottle Up and Go
TTITLE14=Sonny Terry - Cripple Creek
TTITLE15=Sonny Terry - Old Joe Clark
TTITLE16=Sonny Terry - Skip To My Lou
TTITLE17=Sonny Terry - Crow Jane Blues
TTITLE18=Sonny Terry - The Blues
TTITLE19=Sonny Terry - Oh What A Beautiful City
TTITLE20=Sonny Terry - I'll Tell God How You Treated Me
EXTD=
EXTT0=
EXTT1=
EXTT2=
EXTT3=
EXTT4=
EXTT5=
EXTT6=
EXTT7=
EXTT8=
EXTT9=
EXTT10=
EXTT11=
EXTT12=
EXTT13=
EXTT14=
EXTT15=
EXTT16=
EXTT17=
EXTT18=
EXTT19=
EXTT20=
PLAYORDER=
